<mxfile host="app.diagrams.net" modified="2024-03-28T02:51:43.541Z" agent="Mozilla/5.0 (Windows NT 10.0; Win64; x64) AppleWebKit/537.36 (KHTML, like Gecko) Chrome/122.0.0.0 Safari/537.36" etag="GVf5I17uSYD2dR_CsauO" version="24.1.0" type="github">
  <diagram name="Page-1" id="2c4490ee-f0b8-94ab-5012-d5dc3445f7a3">
    <mxGraphModel dx="1248" dy="833" grid="1" gridSize="10" guides="1" tooltips="1" connect="0" arrows="1" fold="1" page="1" pageScale="1.5" pageWidth="1169" pageHeight="826" background="none" math="0" shadow="0">
      <root>
        <mxCell id="0" style=";html=1;" />
        <mxCell id="1" style=";html=1;" parent="0" />
        <mxCell id="0X1uwSeEFaRPiHGDIqRH-1" value="开始" style="rounded=1;whiteSpace=wrap;html=1;fillColor=#8DA0FC;strokeColor=#6c8ebf;fontColor=#FCFFF7;" vertex="1" parent="1">
          <mxGeometry x="580" y="70" width="90" height="40" as="geometry" />
        </mxCell>
      </root>
    </mxGraphModel>
  </diagram>
</mxfile>
